<?xml version="1.0" standalone="no"?>
<!DOCTYPE svg PUBLIC "-//W3C//DTD SVG 20010904//EN"
 "http://www.w3.org/TR/2001/REC-SVG-20010904/DTD/svg10.dtd">
<svg version="1.0" xmlns="http://www.w3.org/2000/svg"
 width="799.000000pt" height="799.000000pt" viewBox="0 0 799.000000 799.000000"
 preserveAspectRatio="xMidYMid meet">
<metadata>
Created by potrace 1.14, written by Peter Selinger 2001-2017
</metadata>
<g transform="translate(0.000000,799.000000) scale(0.100000,-0.100000)"
fill="#000000" stroke="none">
<path d="M1950 7424 c0 -6 -34 -9 -85 -8 -62 1 -83 -1 -79 -9 4 -8 2 -7 -7 1
-7 6 -26 12 -41 12 -16 0 -28 -6 -28 -12 0 -9 -3 -10 -8 -2 -9 14 -164 15
-155 1 4 -6 1 -7 -8 -1 -19 12 -189 13 -182 0 4 -5 1 -6 -8 0 -21 13 -42 14
-56 2 -9 -7 -13 -7 -13 2 0 10 -3 10 -15 0 -12 -10 -15 -10 -15 0 0 9 -3 10
-13 1 -8 -6 -17 -8 -20 -4 -4 3 -14 0 -24 -8 -9 -8 -14 -9 -10 -3 4 7 0 14 -8
18 -8 3 -14 0 -12 -7 1 -7 -5 -10 -13 -9 -42 10 -49 10 -47 -1 1 -6 -8 -11
-20 -12 -12 0 -25 -3 -29 -7 -4 -4 -13 -3 -21 3 -10 9 -13 8 -13 -1 0 -8 -3
-10 -7 -7 -3 4 -13 1 -21 -6 -11 -8 -13 -8 -9 0 5 7 0 9 -13 6 -11 -3 -17 -9
-15 -14 3 -4 -6 -6 -21 -3 -17 3 -23 1 -19 -7 6 -8 2 -8 -13 0 -16 9 -23 7
-36 -12 -16 -20 -17 -20 -12 -2 5 18 5 18 -6 4 -7 -9 -19 -14 -27 -11 -10 3
-11 0 -5 -9 6 -11 5 -12 -7 -2 -13 10 -19 9 -36 -7 -12 -10 -24 -16 -27 -13
-3 4 -6 1 -6 -6 0 -7 -4 -9 -10 -6 -5 3 -10 0 -10 -7 0 -9 -3 -9 -10 2 -8 13
-10 12 -10 -2 0 -16 -11 -23 -32 -19 -5 0 -8 -4 -8 -10 0 -5 -4 -8 -9 -4 -5 3
-16 -1 -23 -9 -8 -7 -24 -17 -36 -20 -12 -4 -20 -11 -17 -16 3 -4 -3 -14 -12
-21 -9 -8 -14 -9 -10 -3 3 6 0 11 -7 11 -8 0 -12 -7 -9 -14 3 -8 0 -13 -8 -11
-8 2 -13 -3 -11 -10 1 -8 -2 -11 -8 -7 -5 3 -10 1 -10 -5 0 -6 -4 -9 -9 -5
-12 7 -33 -29 -23 -41 4 -5 -1 -2 -10 5 -16 12 -18 11 -18 -3 0 -13 -5 -16
-22 -11 -23 7 -23 7 -3 -10 11 -9 14 -14 8 -10 -7 3 -13 1 -13 -5 0 -6 -5 -8
-10 -5 -5 3 -10 -1 -10 -10 0 -9 -4 -14 -9 -11 -5 3 -11 -4 -14 -15 -4 -14
-11 -20 -21 -16 -9 4 -15 3 -15 -1 4 -28 -3 -44 -17 -38 -8 3 -12 2 -9 -3 3
-5 1 -12 -5 -16 -6 -4 -7 -11 -4 -17 5 -7 0 -9 -15 -5 -18 4 -20 3 -10 -9 9
-11 9 -14 0 -14 -7 0 -9 -5 -5 -12 5 -7 2 -9 -9 -5 -11 4 -15 1 -12 -13 2 -10
-3 -24 -11 -30 -7 -7 -11 -17 -7 -24 4 -6 -2 -4 -13 4 -10 8 -16 10 -12 6 4
-5 2 -16 -5 -24 -9 -13 -9 -14 1 -8 6 4 12 2 12 -3 0 -6 -6 -11 -14 -11 -8 0
-18 -5 -22 -12 -5 -7 -3 -8 5 -3 10 6 11 3 1 -16 -7 -13 -19 -27 -26 -32 -7
-4 -10 -15 -7 -24 4 -11 3 -14 -5 -9 -8 5 -10 2 -6 -8 3 -9 1 -16 -6 -16 -6 0
-9 -3 -7 -7 9 -15 -13 -54 -25 -47 -9 6 -9 3 1 -9 12 -15 9 -21 -11 -18 -3 0
-5 -13 -3 -30 3 -18 0 -27 -6 -24 -12 8 -7 -18 6 -27 6 -5 3 -8 -6 -8 -20 0
-33 -27 -16 -33 9 -3 9 -8 -1 -19 -10 -13 -10 -17 0 -21 8 -3 6 -6 -5 -6 -15
-1 -16 -5 -7 -21 6 -11 7 -20 3 -19 -20 3 -23 -3 -12 -23 12 -22 11 -22 -6 -8
-12 10 -16 11 -11 2 11 -19 15 -62 5 -62 -5 0 -9 -5 -9 -11 0 -5 4 -8 8 -5 4
2 8 -4 8 -14 0 -10 -3 -18 -6 -18 -3 0 -12 0 -20 -1 -13 -1 -13 -3 0 -10 8 -6
19 -7 25 -4 5 4 3 -2 -6 -13 -9 -10 -14 -25 -12 -31 3 -7 -1 -13 -8 -13 -8 0
-5 -6 7 -16 10 -8 14 -13 7 -10 -6 4 -14 2 -18 -4 -3 -5 2 -10 12 -10 17 -1
17 -2 -1 -15 -18 -13 -15 -19 6 -16 4 0 0 -12 -7 -26 -10 -20 -11 -31 -3 -40
8 -10 7 -13 -3 -13 -11 0 -11 -2 1 -10 11 -7 11 -10 2 -10 -9 0 -10 -5 -2 -19
7 -13 7 -20 -1 -23 -7 -2 -7 -12 0 -31 8 -20 7 -27 -2 -27 -8 0 -7 -4 3 -10 8
-5 11 -10 5 -10 -11 0 -11 -72 0 -89 3 -6 0 -11 -7 -11 -9 0 -9 -3 2 -10 8 -5
11 -10 5 -10 -11 0 -11 -72 0 -89 3 -6 2 -11 -4 -11 -6 0 -6 -11 -1 -30 6 -21
5 -30 -3 -30 -7 0 -6 -4 3 -10 12 -8 12 -10 1 -10 -11 0 -11 -3 -1 -15 8 -10
9 -15 2 -15 -6 0 -9 -7 -6 -15 4 -8 11 -12 18 -9 6 3 3 -1 -6 -9 -14 -11 -15
-16 -5 -27 9 -10 9 -11 -1 -5 -11 6 -12 3 -3 -14 8 -15 9 -21 1 -21 -6 0 -8
-5 -4 -12 8 -13 12 -78 4 -78 -8 0 -3 -157 5 -171 6 -8 4 -10 -4 -4 -10 6 -11
3 -2 -14 9 -16 9 -21 -1 -21 -9 0 -9 -3 2 -10 8 -5 10 -10 5 -10 -6 0 -10 -12
-9 -27 1 -16 3 -28 4 -28 1 0 3 -10 4 -22 2 -13 -2 -23 -8 -23 -6 0 -4 -5 4
-10 8 -5 10 -10 5 -10 -6 0 -10 -12 -9 -27 1 -16 3 -28 4 -28 1 0 3 -10 4 -22
2 -13 -2 -23 -7 -23 -5 0 -3 -8 4 -17 12 -14 12 -15 1 -9 -11 7 -12 4 -3 -13
7 -11 8 -21 3 -21 -4 0 -8 -9 -8 -20 0 -11 5 -20 11 -20 6 0 7 -3 0 -8 -14
-10 -14 -52 -1 -52 7 0 7 -3 1 -8 -5 -4 -10 -16 -10 -27 0 -11 5 -23 10 -27 6
-5 5 -8 -3 -8 -10 0 -10 -5 -2 -20 8 -15 8 -20 -1 -20 -8 0 -8 -4 1 -15 10
-12 10 -15 0 -15 -10 0 -10 -3 0 -15 10 -12 10 -15 0 -15 -10 0 -10 -3 0 -15
9 -10 9 -15 1 -15 -6 0 -11 -5 -11 -11 0 -5 4 -7 10 -4 6 4 7 -2 1 -18 -6 -16
-6 -28 1 -35 6 -6 6 -12 -1 -16 -6 -4 -11 -12 -11 -17 0 -6 5 -7 12 -3 6 4 8
3 5 -3 -13 -20 -16 -93 -4 -93 8 0 8 -3 2 -8 -15 -10 -18 -55 -3 -46 7 5 8 3
2 -7 -13 -21 -13 -490 0 -482 8 5 8 3 0 -8 -13 -17 -13 -777 0 -798 6 -9 5
-12 0 -8 -6 3 -10 -59 -9 -158 0 -106 3 -161 10 -157 6 4 6 0 0 -9 -12 -15
-13 -164 -2 -175 3 -4 2 -14 -3 -23 -5 -10 -5 -23 0 -31 5 -8 5 -21 -1 -31 -6
-11 -5 -20 1 -24 6 -3 6 -15 0 -29 -5 -15 -5 -27 3 -35 6 -6 7 -11 1 -11 -16
0 -11 -74 6 -82 13 -6 13 -7 0 -7 -12 -1 -14 -11 -12 -46 3 -30 8 -43 16 -39
6 3 2 -2 -8 -10 -19 -15 -19 -16 -1 -16 18 0 18 -1 -1 -16 -10 -8 -14 -13 -8
-10 7 3 15 -1 18 -10 8 -21 8 -24 -5 -24 -5 0 -7 5 -3 12 5 7 3 8 -5 4 -9 -6
-8 -13 6 -29 10 -11 12 -17 4 -12 -8 4 -6 -3 5 -21 13 -19 14 -25 5 -19 -11 6
-13 4 -8 -9 4 -10 7 -22 7 -27 0 -6 4 -8 8 -5 5 3 9 -1 9 -9 0 -8 -4 -12 -9
-9 -4 3 -8 1 -8 -5 0 -5 6 -12 13 -14 9 -4 9 -6 -2 -6 -8 -1 -5 -9 10 -22 13
-11 19 -18 12 -14 -8 4 -12 -4 -10 -25 1 -16 6 -30 11 -30 5 0 6 -3 3 -7 -4
-3 -2 -12 4 -19 6 -8 9 -20 6 -29 -4 -8 -2 -17 3 -20 6 -4 10 -15 10 -26 0
-11 7 -19 18 -19 13 0 14 -2 4 -9 -11 -7 -11 -11 0 -22 16 -16 18 -21 18 -49
0 -12 7 -20 18 -20 13 0 14 -2 3 -9 -11 -7 -10 -11 5 -20 11 -6 13 -11 7 -11
-7 0 -13 -5 -13 -11 0 -5 5 -7 10 -4 6 3 10 -2 10 -12 0 -10 7 -28 15 -39 8
-12 11 -25 7 -29 -4 -4 4 -4 18 -1 14 4 20 4 13 -1 -13 -9 -12 -30 1 -51 5 -9
12 -10 20 -3 8 7 12 5 12 -9 0 -10 -4 -16 -8 -14 -4 3 -5 -2 -2 -10 3 -9 10
-13 15 -10 5 3 9 -2 9 -11 0 -9 5 -13 10 -10 6 4 10 3 9 -2 -5 -28 2 -45 17
-39 8 3 13 2 9 -3 -7 -12 5 -41 17 -41 5 0 6 5 2 12 -4 7 -3 8 5 4 8 -5 9 -12
2 -19 -9 -11 11 -41 21 -32 2 3 10 -11 17 -31 11 -30 15 -33 29 -22 13 11 14
11 8 0 -10 -16 20 -52 43 -52 13 0 13 -2 2 -9 -11 -7 -9 -10 8 -16 11 -3 21
-13 21 -21 0 -8 6 -13 13 -11 6 1 11 -4 10 -10 -2 -7 3 -13 11 -13 7 0 24 -10
38 -23 14 -13 30 -21 35 -20 6 2 10 -4 9 -14 0 -11 6 -18 16 -18 9 0 20 -4 25
-9 5 -5 2 -6 -6 -1 -10 6 -12 4 -7 -4 5 -7 14 -10 22 -7 9 3 11 0 7 -11 -5
-13 -2 -15 15 -11 12 4 25 1 29 -4 3 -7 1 -8 -5 -4 -7 4 -12 3 -12 -1 0 -5 9
-14 21 -21 12 -8 18 -9 15 -3 -4 7 -1 8 8 5 8 -3 12 -12 9 -21 -5 -13 -3 -13
16 -4 12 7 21 8 20 4 -5 -28 1 -35 18 -22 10 7 15 10 11 5 -4 -4 -1 -14 5 -21
9 -10 15 -10 26 -1 12 8 13 8 7 -1 -4 -8 -1 -13 8 -13 9 0 16 -5 16 -11 0 -5
4 -7 10 -4 5 3 10 -1 10 -9 0 -9 5 -16 11 -16 5 0 8 4 5 8 -3 5 1 9 9 9 8 0
12 -4 9 -9 -3 -4 2 -8 10 -8 9 0 16 -5 16 -11 0 -5 4 -8 9 -5 4 3 17 -1 27 -8
14 -11 24 -11 39 -3 18 9 18 8 7 -6 -11 -13 -11 -15 0 -13 7 1 19 5 26 10 12
7 12 4 1 -15 -11 -21 -11 -23 3 -11 13 10 17 10 21 -2 4 -9 17 -13 37 -12 18
1 39 -4 48 -13 8 -9 26 -14 39 -13 13 2 23 -2 23 -9 0 -9 3 -9 14 0 10 8 16 9
21 1 3 -6 11 -8 16 -5 5 4 9 2 9 -3 0 -6 8 -8 19 -5 10 3 22 0 26 -7 5 -8 10
-8 20 0 9 8 15 8 20 0 3 -5 11 -10 16 -10 6 0 7 6 3 13 -6 8 -3 8 9 -1 9 -8
34 -15 56 -17 22 -2 46 -7 53 -11 9 -6 9 -3 -1 9 -12 15 -12 17 3 11 9 -3 16
-10 16 -16 0 -5 5 -6 11 -3 16 11 59 13 53 4 -3 -5 -1 -9 5 -9 5 0 13 5 17 11
4 8 9 7 15 -2 5 -8 9 -9 9 -3 0 6 7 11 15 11 12 0 12 -3 2 -15 -10 -13 -9 -14
8 -5 11 5 37 9 57 7 21 -1 40 2 43 6 3 5 12 7 20 4 8 -4 13 -9 10 -13 -2 -4 2
-8 10 -8 8 0 12 3 11 6 -2 3 15 6 39 6 24 0 41 -3 39 -6 -3 -6 15 -5 78 4 15
2 26 1 24 -2 -3 -4 25 -6 60 -6 35 0 64 4 64 8 0 4 9 3 20 -3 13 -7 20 -7 20
-1 0 6 7 8 15 5 8 -4 12 -11 9 -18 -3 -6 1 -3 9 6 8 10 17 15 20 12 7 -8 97
-11 97 -4 0 3 9 6 19 6 15 0 17 -3 9 -13 -15 -18 -3 -16 16 3 9 9 16 11 16 4
0 -6 4 -9 8 -6 18 11 62 14 67 5 4 -5 13 -5 25 1 14 7 23 6 34 -6 9 -8 16 -11
16 -6 0 12 60 10 79 -2 11 -7 13 -5 9 6 -5 12 0 14 20 10 15 -3 30 -10 34 -16
5 -7 8 -3 8 8 0 19 0 19 22 0 12 -10 18 -13 14 -6 -5 8 0 12 16 13 13 1 42 2
65 4 23 1 40 -1 38 -5 -3 -4 -16 -6 -30 -5 -14 2 -23 0 -20 -4 2 -4 14 -7 27
-5 13 1 29 3 36 3 7 1 10 6 6 12 -5 8 -1 8 14 0 26 -14 35 -14 26 0 -5 8 -1 8
13 0 14 -7 24 -7 33 2 10 9 11 9 6 0 -5 -8 -1 -13 9 -13 10 0 13 4 8 13 -4 6
6 4 21 -7 16 -10 26 -14 22 -8 -3 5 1 13 10 16 8 3 12 2 9 -4 -3 -6 4 -10 17
-10 18 0 20 2 8 10 -20 13 -4 13 21 0 13 -8 19 -7 19 0 0 7 6 8 18 1 13 -7 23
-6 32 2 10 9 11 9 6 0 -4 -7 -2 -13 3 -13 6 0 11 5 11 10 0 6 5 10 11 10 5 0
7 -6 3 -12 -5 -8 0 -7 11 2 10 8 16 10 12 3 -7 -11 6 -11 96 1 22 3 25 1 16
-10 -16 -19 -4 -18 15 2 9 8 16 11 16 5 0 -6 5 -11 11 -11 5 0 8 4 5 8 -3 5 1
9 9 9 8 0 12 -3 10 -7 -2 -3 24 -5 58 -4 40 2 61 7 59 14 -2 8 3 8 18 0 11 -6
20 -16 20 -23 0 -9 2 -9 8 0 5 7 19 10 36 7 15 -2 25 -1 22 4 -3 5 1 9 9 9 8
0 12 -4 9 -9 -3 -4 -1 -8 5 -8 5 0 14 7 19 16 8 15 10 15 15 -1 4 -9 12 -13
18 -10 16 10 69 12 63 3 -3 -4 0 -8 5 -8 6 0 11 5 11 11 0 8 5 8 15 -1 9 -7
15 -8 15 -2 0 12 33 10 42 -3 5 -6 8 -5 8 3 0 17 20 15 44 -6 15 -12 17 -13 9
-1 -11 13 -10 15 5 14 9 0 23 -4 30 -9 7 -4 12 -2 12 5 0 7 8 5 20 -6 17 -15
20 -16 15 -3 -8 19 11 33 21 17 5 -8 3 -9 -7 -4 -8 5 -10 4 -6 0 11 -13 37
-15 37 -3 0 6 9 3 20 -7 20 -18 21 -18 27 3 5 21 6 21 19 5 10 -13 13 -14 14
-4 0 11 5 10 20 -4 19 -17 20 -17 28 5 7 20 10 21 15 7 4 -10 11 -17 17 -17 6
0 8 5 4 12 -4 7 -3 8 4 4 18 -11 82 -15 82 -5 0 5 7 5 17 2 12 -5 14 -3 9 8
-4 8 -1 6 7 -4 12 -15 16 -15 20 -3 6 14 30 16 43 3 4 -3 -3 -5 -15 -2 -11 2
-21 0 -21 -4 0 -5 14 -8 30 -7 17 0 30 4 30 9 0 4 6 5 13 0 16 -10 87 -11 81
-1 -3 4 2 5 10 2 9 -3 16 -11 16 -18 0 -6 4 -5 9 4 6 8 8 17 6 20 -2 4 2 7 10
7 10 0 12 -4 5 -12 -7 -8 1 -11 29 -11 22 1 37 5 34 11 -2 6 3 1 11 -9 13 -16
16 -17 16 -4 0 18 27 32 35 18 4 -6 17 -10 30 -10 13 0 26 -6 28 -12 3 -7 6
-2 6 11 1 24 1 24 17 5 8 -10 13 -14 10 -7 -4 7 1 9 16 5 16 -4 19 -2 13 9 -5
8 -1 7 11 -3 18 -16 22 -16 35 -2 14 13 16 13 16 0 0 -8 -5 -12 -10 -9 -6 3
-7 2 -4 -4 7 -11 63 -10 74 2 5 4 2 5 -6 0 -10 -5 -12 -4 -7 3 5 9 13 9 27 2
14 -8 19 -7 19 2 0 7 5 5 11 -5 10 -17 12 -17 28 -2 15 13 20 13 29 2 9 -11
57 -16 57 -7 0 8 62 5 67 -4 5 -7 8 -3 8 8 0 20 0 20 15 0 8 -10 15 -14 15 -8
0 13 30 15 30 2 0 -5 5 -6 10 -3 6 4 8 11 5 16 -4 5 -2 9 3 9 6 0 13 -8 16
-17 4 -10 10 -13 14 -8 11 15 42 18 42 4 0 -7 7 -4 15 7 15 18 15 18 8 0 -5
-15 -3 -17 8 -10 21 13 49 15 49 3 0 -5 5 -7 10 -4 6 4 7 12 3 18 -3 7 2 4 13
-5 16 -14 23 -15 33 -5 9 9 14 9 21 -3 7 -10 10 -11 10 -2 0 14 21 12 32 -3 5
-6 8 -5 8 3 0 7 5 10 10 7 6 -3 10 0 10 7 0 10 3 9 9 -1 8 -12 12 -13 26 -1
13 11 15 11 13 0 -2 -7 3 -15 11 -18 10 -3 12 0 8 12 -5 14 -3 15 13 6 24 -13
53 -13 45 0 -9 15 2 12 19 -6 9 -8 16 -11 16 -6 0 6 14 9 30 8 17 -1 36 1 42
5 7 4 18 3 25 -3 9 -7 13 -7 13 1 0 6 5 11 10 11 6 0 9 -5 8 -11 -2 -6 3 -14
11 -17 8 -3 11 0 7 7 -5 7 1 11 16 11 13 0 30 0 38 1 19 1 57 -8 73 -17 7 -5
6 0 -3 11 -14 17 -14 18 5 8 11 -6 30 -9 42 -7 12 2 24 0 28 -5 3 -5 14 -7 25
-4 11 3 17 10 14 15 -4 6 2 5 14 -1 27 -14 35 -14 26 1 -4 7 -3 8 5 4 21 -13
82 -15 74 -3 -4 7 0 7 9 -1 13 -10 17 -10 21 0 4 10 7 11 18 1 7 -7 20 -13 29
-13 13 0 13 1 0 10 -9 6 -10 10 -3 10 6 0 15 -5 19 -11 4 -8 9 -7 15 2 6 11
11 11 21 1 14 -14 32 -16 23 -3 -3 5 0 13 6 17 8 4 9 3 5 -4 -4 -7 -1 -12 9
-12 9 0 13 -5 9 -11 -3 -6 6 -3 22 7 15 11 25 13 21 7 -5 -9 -2 -13 8 -13 9 0
13 4 10 10 -4 7 3 7 20 0 33 -12 35 -12 35 1 0 5 -5 7 -12 3 -7 -5 -8 -3 -3 5
6 10 11 9 23 -3 14 -14 17 -14 29 2 8 9 12 11 8 5 -3 -7 0 -13 7 -14 7 -1 25
-2 40 -3 20 -2 25 1 21 13 -3 9 5 5 18 -9 12 -14 20 -18 17 -9 -5 12 1 15 30
12 20 -1 42 -5 49 -7 7 -3 15 -1 18 4 3 5 14 7 25 5 12 -2 18 0 15 6 -4 5 1 9
9 9 9 0 16 6 16 13 0 6 5 4 11 -6 10 -18 11 -18 26 0 14 17 14 17 9 -2 -5 -17
-4 -18 6 -5 15 18 61 23 51 6 -4 -6 0 -5 9 2 9 7 28 11 43 8 21 -4 25 -2 21
10 -4 11 -2 12 14 4 28 -15 37 -12 14 5 -17 13 -16 14 14 5 27 -7 32 -6 32 8
0 15 2 15 10 2 7 -12 10 -12 10 -1 0 7 6 11 15 7 8 -3 15 -1 15 3 0 5 8 7 19
4 10 -3 22 0 25 6 5 7 1 8 -11 4 -10 -3 -15 -3 -12 1 4 4 16 8 27 11 16 3 20
0 16 -13 -3 -9 1 -6 9 7 10 17 16 20 22 11 6 -9 13 -7 27 11 11 13 16 17 12 9
-6 -12 -5 -13 8 -3 8 7 18 10 22 6 4 -4 4 1 0 11 -6 16 -4 17 14 7 18 -9 21
-9 16 2 -4 11 1 13 19 10 17 -3 28 2 40 20 9 15 24 24 34 22 10 -1 26 6 36 16
15 17 36 24 59 20 3 0 5 11 4 24 -3 21 -1 23 17 14 14 -8 18 -8 13 0 -6 10 6
15 26 12 4 0 5 6 2 14 -5 11 -2 13 12 8 16 -6 17 -5 6 9 -10 13 -10 18 -1 24
8 4 9 3 5 -4 -4 -7 -2 -12 3 -12 6 0 12 7 12 15 3 28 4 33 11 41 4 3 6 -3 3
-14 -2 -15 0 -19 11 -15 7 3 11 9 8 14 -3 5 0 9 6 9 7 0 10 7 7 14 -4 11 -1
13 10 9 11 -4 14 -3 9 6 -5 8 -2 11 9 9 11 -2 24 9 36 32 10 19 19 31 19 26 0
-5 6 -3 13 3 8 6 18 7 22 3 5 -4 5 -1 1 6 -4 7 -11 10 -16 7 -5 -3 -8 3 -7 14
1 16 4 18 22 9 18 -10 19 -10 6 5 -16 20 -2 23 19 4 8 -6 6 -1 -5 12 -11 14
-14 21 -7 17 6 -4 12 -2 12 4 0 6 4 8 10 5 6 -4 7 1 3 11 -5 13 -3 15 8 9 12
-8 12 -6 0 8 -12 15 -12 17 4 11 14 -6 16 -4 10 6 -6 10 -4 12 9 7 14 -6 15
-4 5 14 -9 17 -8 20 2 14 9 -6 10 -3 5 10 -5 15 -4 16 8 6 24 -20 39 18 18 43
-16 18 -16 18 5 7 16 -8 24 -8 29 1 4 6 3 8 -4 4 -6 -3 -13 -2 -17 4 -3 5 -1
10 5 10 6 0 9 4 6 9 -3 5 1 14 9 21 8 7 12 17 8 24 -5 7 -2 7 8 -1 12 -10 15
-8 15 7 0 10 -5 16 -10 13 -5 -3 -6 -1 -2 5 4 7 14 12 22 12 8 0 14 5 14 11 0
6 -9 8 -22 4 -21 -5 -21 -5 2 9 14 9 19 15 12 16 -7 0 -10 5 -7 10 5 8 12 7
23 -2 12 -10 12 -8 -2 14 -17 26 -17 27 2 23 15 -3 19 1 15 16 -3 10 -10 19
-15 19 -5 0 -6 5 -3 10 5 8 11 8 19 1 9 -8 13 -7 13 4 0 8 -4 15 -9 15 -5 0
-6 5 -3 10 4 6 10 8 15 5 10 -6 8 15 -4 34 -7 10 -6 12 4 6 10 -6 12 -4 7 9
-4 9 -3 15 3 11 5 -3 8 3 8 12 0 10 3 27 7 37 7 15 5 18 -6 12 -11 -6 -10 -4
1 6 16 14 19 36 7 56 -5 6 -4 12 2 12 5 0 9 9 8 20 -1 11 -5 20 -10 20 -4 0
-5 6 0 13 10 17 10 87 0 80 -5 -3 -4 3 1 14 7 12 7 24 0 37 -8 14 -7 17 1 12
6 -4 11 -1 11 8 0 9 -4 16 -10 16 -6 0 -5 11 3 27 9 21 9 27 -1 31 -6 2 -12 8
-12 13 0 6 3 8 8 6 4 -3 8 10 8 29 1 18 -2 31 -7 29 -9 -6 -5 18 7 49 6 15 4
17 -7 11 -12 -7 -12 -6 -1 7 9 11 10 18 2 23 -6 3 -7 11 -4 17 10 15 13 99 5
93 -9 -5 -7 32 2 41 3 4 2 16 -4 27 -8 14 -8 18 0 13 6 -4 11 0 11 8 0 9 -4
16 -8 16 -5 0 -9 7 -9 15 0 8 4 12 9 9 4 -3 8 0 8 5 0 6 -5 11 -11 11 -8 0 -8
4 0 13 8 10 7 17 -2 27 -9 10 -9 11 1 6 6 -4 12 -2 12 3 0 6 -6 11 -12 11 -9
0 -8 4 2 10 12 8 12 10 1 10 -11 0 -11 3 -1 15 10 12 10 15 -1 15 -11 0 -11 2
1 10 12 8 13 11 1 19 -11 7 -11 9 0 14 11 4 11 6 1 6 -10 1 -10 6 -2 21 8 15
8 20 -1 20 -8 0 -8 5 2 16 7 9 9 18 3 22 -13 10 -17 35 -4 27 5 -3 10 -1 10 4
0 6 -5 11 -11 11 -8 0 -7 6 2 17 10 11 10 14 2 9 -7 -4 -13 -3 -13 3 0 5 6 12
13 14 9 4 8 8 -3 16 -13 10 -13 11 0 11 12 0 12 2 1 9 -9 6 -10 11 -2 15 10 7
7 64 -4 75 -3 2 0 10 6 18 9 10 8 13 0 13 -7 0 -9 5 -4 13 10 16 10 77 0 77
-4 0 -3 9 3 20 8 15 8 20 -1 20 -8 0 -8 4 1 15 9 10 9 15 1 15 -6 0 -11 5 -11
11 0 5 5 7 10 4 13 -8 9 17 -4 27 -6 4 -4 13 3 22 11 13 11 16 0 16 -12 0 -12
2 0 9 11 7 11 9 0 14 -12 4 -11 7 1 16 12 9 13 12 1 20 -9 6 -10 10 -2 16 9 5
9 11 -1 23 -10 12 -10 14 0 8 6 -4 12 -2 12 3 0 6 -5 11 -12 11 -9 0 -9 3 0
12 7 7 12 17 12 23 0 5 -5 3 -10 -5 -6 -9 -10 -10 -10 -3 0 6 5 15 11 19 8 4
7 9 -2 15 -11 7 -11 9 1 9 13 0 13 1 0 10 -13 9 -13 11 0 20 13 9 13 11 0 20
-13 9 -13 10 0 10 12 0 12 2 1 9 -8 5 -9 11 -3 15 9 5 10 55 2 91 -1 6 -1 12
0 15 7 19 5 56 -4 63 -8 5 -8 9 1 15 8 5 9 13 3 22 -5 9 -5 19 2 27 7 9 7 13
-1 13 -7 0 -9 5 -4 13 11 17 13 38 3 32 -4 -3 -10 2 -13 10 -4 9 -1 12 9 8 7
-3 14 0 14 6 0 6 -6 11 -12 11 -9 0 -8 4 2 10 10 6 11 10 3 10 -7 0 -13 5 -13
11 0 5 4 8 8 5 5 -3 9 1 9 9 0 8 -5 11 -11 8 -6 -4 -5 1 3 10 9 12 10 17 2 17
-7 0 -9 5 -4 13 10 16 13 37 4 37 -9 0 -7 42 3 58 4 7 2 12 -6 12 -9 0 -9 3 2
10 11 7 11 10 2 10 -8 0 -10 5 -5 13 10 16 11 96 2 123 -4 13 -3 26 4 33 8 8
7 11 -3 11 -11 0 -11 3 -2 12 14 14 16 32 4 24 -10 -6 -9 25 2 42 4 7 2 12 -5
12 -8 0 -8 4 1 15 10 12 10 15 0 15 -9 0 -10 3 -1 13 8 10 7 17 -1 25 -8 8 -8
15 2 27 10 12 10 15 0 15 -10 0 -10 3 0 15 7 9 10 18 6 22 -3 3 -6 0 -6 -7 0
-7 -3 -10 -6 -7 -4 4 -1 13 6 22 8 10 9 15 1 15 -6 0 -11 5 -11 11 0 5 4 8 8
5 9 -6 8 67 -2 82 -3 6 -2 13 4 17 6 4 4 16 -6 33 -10 16 -11 21 -2 10 12 -14
14 -12 14 23 0 24 -3 34 -8 27 -4 -7 -8 -8 -8 -2 0 5 5 15 12 22 9 9 9 12 0
12 -7 0 -12 5 -12 11 0 5 4 8 9 5 9 -6 6 42 -3 51 -3 4 -1 12 5 20 9 9 8 13 0
13 -6 0 -11 5 -11 11 0 5 4 8 8 5 5 -3 9 1 9 9 0 8 -4 15 -9 15 -4 0 -8 5 -8
11 0 5 4 8 8 5 11 -6 9 25 -3 43 -5 10 -4 12 3 7 7 -4 12 -2 12 3 0 6 -4 11
-10 11 -5 0 -10 5 -10 11 0 5 3 8 8 6 4 -3 7 12 7 34 0 21 -4 39 -10 39 -5 0
-3 5 5 11 11 8 12 12 3 16 -7 2 -13 9 -13 14 0 6 4 8 8 5 11 -6 9 25 -3 43 -5
10 -4 12 3 7 7 -4 12 -2 12 3 0 6 -6 11 -12 11 -8 0 -9 3 -3 8 14 10 15 42 3
65 -7 14 -7 17 1 13 6 -4 11 -2 11 3 0 6 -4 11 -10 11 -5 0 -10 5 -10 11 0 5
5 7 10 4 14 -9 12 8 -2 24 -10 11 -10 13 0 7 8 -5 12 0 12 13 0 12 -4 21 -8
21 -5 0 -9 7 -9 15 0 8 4 12 9 9 4 -3 8 4 8 15 0 10 -6 22 -12 24 -10 4 -10 6
0 6 9 1 10 6 2 20 -7 13 -7 22 0 26 5 3 10 11 10 16 0 6 -6 7 -12 3 -10 -6
-10 -4 -3 7 12 17 13 39 1 58 -6 10 -5 12 2 7 8 -5 12 0 12 13 0 10 -6 22 -12
24 -10 4 -10 6 0 6 10 1 10 6 1 22 -8 15 -8 19 0 15 15 -10 14 7 -1 22 -7 7
-8 12 -2 12 7 0 10 53 10 149 0 82 -4 147 -8 145 -8 -5 -5 17 5 34 5 7 3 12
-5 12 -9 0 -9 3 2 10 13 8 12 10 -4 10 -20 0 -20 0 0 14 18 14 18 15 2 21 -10
4 -15 11 -12 16 3 5 11 6 17 3 7 -4 2 4 -11 18 -17 19 -20 28 -11 33 7 5 10 4
5 -3 -3 -6 -2 -13 3 -16 4 -3 8 14 7 38 0 24 -5 43 -10 43 -5 -1 -11 4 -14 12
-3 9 0 11 8 6 7 -4 4 5 -6 21 -18 29 -18 29 1 14 18 -14 19 -14 7 2 -8 9 -11
22 -7 28 3 5 1 10 -5 10 -6 0 -8 5 -4 13 6 9 5 9 -7 0 -12 -10 -14 -4 -13 38
1 29 -4 53 -11 59 -7 6 -11 20 -8 30 3 11 0 20 -5 20 -6 0 -16 10 -23 22 -10
18 -9 20 7 14 18 -6 18 -5 0 9 -14 11 -16 15 -5 15 10 1 9 4 -4 14 -18 14 -18
14 0 19 15 4 15 5 -3 6 -12 0 -25 8 -28 17 -3 8 -2 12 4 9 6 -3 10 -1 10 4 0
6 -5 11 -11 11 -6 0 -8 7 -5 16 3 8 2 12 -4 9 -6 -3 -10 1 -10 10 0 20 -25 47
-35 37 -4 -4 -2 4 5 17 6 13 8 21 2 17 -5 -3 -13 1 -16 10 -4 10 -2 13 7 9 6
-4 3 1 -7 9 -11 9 -24 16 -28 16 -5 0 -4 8 1 19 12 22 5 32 -17 24 -10 -4 -13
-2 -8 5 8 13 -17 56 -27 46 -3 -3 -3 4 0 17 4 15 3 20 -5 15 -8 -5 -12 1 -12
15 0 12 -3 20 -6 16 -3 -3 -17 4 -30 15 -19 18 -21 24 -11 37 9 12 9 13 0 7
-8 -4 -13 -2 -13 4 0 6 -4 8 -10 5 -6 -3 -7 1 -4 9 5 14 -5 21 -28 17 -4 0 -5
9 -3 20 3 17 0 20 -15 16 -11 -3 -19 -2 -18 2 2 20 -3 41 -11 38 -13 -3 -60
50 -52 60 3 4 -3 1 -13 -7 -11 -8 -17 -10 -13 -4 3 6 -1 20 -9 30 -9 10 -13
13 -9 7 3 -7 1 -13 -4 -13 -6 0 -11 6 -11 14 0 14 -36 32 -52 28 -4 -1 -5 5
-2 13 4 9 0 15 -10 15 -9 0 -16 5 -16 10 0 6 -8 10 -19 10 -20 0 -45 23 -35
33 3 3 -6 4 -20 3 -16 -2 -26 2 -26 10 0 7 -13 15 -29 19 -16 3 -35 13 -42 21
-6 8 -20 14 -30 14 -11 0 -19 4 -19 9 0 5 -7 12 -16 15 -8 3 -12 2 -9 -4 3 -6
1 -10 -4 -10 -6 0 -11 6 -11 14 0 8 -7 16 -14 19 -11 4 -13 1 -10 -11 5 -15 4
-15 -9 1 -8 10 -21 16 -28 15 -8 -2 -13 2 -12 8 1 7 -8 9 -24 6 -17 -3 -24 -1
-20 6 5 6 -4 9 -22 8 -17 -1 -27 2 -24 8 4 5 -3 7 -15 4 -12 -4 -22 -2 -22 4
0 5 -4 6 -10 3 -5 -3 -10 0 -10 7 0 9 -3 9 -10 -2 -5 -8 -10 -10 -10 -3 0 6
-8 10 -17 9 -10 -2 -21 1 -25 7 -3 6 -29 10 -57 10 -28 -1 -49 2 -47 6 3 4 -4
7 -14 7 -10 0 -17 -3 -15 -6 2 -4 -2 -7 -10 -7 -8 0 -12 4 -10 8 6 9 40 8
-560 13 -371 2 -524 0 -534 -8 -11 -8 -13 -8 -8 1 9 14 -210 13 -232 -1 -9 -6
-12 -5 -8 1 8 13 -211 12 -232 -1 -9 -6 -12 -5 -8 1 8 13 -211 12 -232 -1 -9
-6 -12 -5 -7 2 8 14 -211 11 -233 -2 -9 -6 -12 -5 -8 1 4 6 -83 10 -253 9
-166 -1 -260 -5 -260 -11 0 -5 -5 -3 -10 5 -5 8 -10 11 -10 5 0 -6 -54 -10
-142 -10 -84 0 -146 4 -150 10 -5 7 -8 7 -8 0 0 -11 -300 -12 -319 -1 -6 4
-11 4 -11 -1 0 -4 -22 -8 -50 -8 -27 0 -50 5 -50 10 0 7 -3 7 -8 0 -4 -6 -59
-10 -127 -10 -68 0 -123 4 -127 10 -5 7 -8 7 -8 0 0 -6 -28 -10 -65 -10 -36 0
-65 4 -65 8 0 5 -5 5 -10 2 -6 -4 -7 -11 -4 -17 5 -7 2 -8 -7 -2 -21 14 -233
14 -241 0 -5 -7 -8 -7 -8 0 0 6 -27 11 -65 12 -49 1 -64 -2 -60 -11 4 -6 -1
-3 -9 7 -9 11 -16 14 -16 8 0 -8 -9 -10 -26 -6 -17 4 -29 2 -35 -7 -6 -10 -9
-11 -9 -1 0 8 -9 11 -24 8 -14 -2 -27 1 -30 7 -3 9 -5 9 -5 0 -1 -8 -15 -10
-47 -6 -38 4 -45 3 -40 -8 4 -8 0 -5 -8 5 -9 11 -16 15 -16 9 0 -7 -24 -10
-71 -7 -55 4 -69 2 -64 -8 4 -7 -1 -4 -9 6 -9 11 -16 15 -16 10 0 -6 -26 -10
-60 -10 -33 1 -60 5 -60 9 0 5 -5 5 -10 2 -6 -4 -8 -12 -4 -18 3 -7 -2 -3 -10
7 -9 11 -16 15 -16 10z m5874 -6149 c-4 -8 -8 -15 -10 -15 -2 0 -4 7 -4 15 0
8 4 15 10 15 5 0 7 -7 4 -15z m-7379 -153 c-3 -3 -11 0 -18 7 -9 10 -8 11 6 5
10 -3 15 -9 12 -12z m7203 -82 c-7 -11 -14 -17 -17 -15 -2 3 1 11 7 18 7 8 8
18 4 22 -4 5 -1 5 5 1 10 -5 10 -11 1 -26z m-927 -417 c7 -10 9 -15 5 -11 -5
4 -15 3 -22 -3 -8 -7 -14 -7 -19 1 -4 6 -1 9 7 8 7 -2 12 3 11 10 -4 17 2 15
18 -5z m-4787 -11 c3 -5 -1 -9 -9 -9 -8 0 -12 4 -9 9 3 4 7 8 9 8 2 0 6 -4 9
-8z m2290 0 c3 -5 -1 -9 -9 -9 -8 0 -12 4 -9 9 3 4 7 8 9 8 2 0 6 -4 9 -8z
m646 4 c0 -2 -8 -10 -17 -17 -16 -13 -17 -12 -4 4 13 16 21 21 21 13z m1160
-10 c0 -3 -4 -8 -10 -11 -5 -3 -10 -1 -10 4 0 6 5 11 10 11 6 0 10 -2 10 -4z"/>
<path d="M7647 6879 c7 -7 15 -10 18 -7 3 3 -2 9 -12 12 -14 6 -15 5 -6 -5z"/>
<path d="M216 6848 c3 -5 10 -6 15 -3 13 9 11 12 -6 12 -8 0 -12 -4 -9 -9z"/>
<path d="M7855 1351 c-3 -5 -2 -12 3 -15 5 -3 9 1 9 9 0 17 -3 19 -12 6z"/>
<path d="M7334 789 c-4 -7 -3 -9 4 -5 5 3 13 0 15 -6 4 -9 6 -10 6 -1 1 17
-16 25 -25 12z"/>
<path d="M1771 594 c0 -11 3 -14 6 -6 3 7 2 16 -1 19 -3 4 -6 -2 -5 -13z"/>
<path d="M4626 601 c-3 -5 1 -11 9 -15 8 -3 15 -1 15 4 0 13 -18 22 -24 11z"/>
<path d="M2416 588 c3 -5 10 -6 15 -3 13 9 11 12 -6 12 -8 0 -12 -4 -9 -9z"/>
<path d="M3490 589 c0 -5 5 -7 10 -4 6 3 10 8 10 11 0 2 -4 4 -10 4 -5 0 -10
-5 -10 -11z"/>
</g>
</svg>
